<?xml version="1.0" encoding="UTF-8" standalone="no" ?>
<!DOCTYPE svg PUBLIC "-//W3C//DTD SVG 1.1//EN" "http://www.w3.org/Graphics/SVG/1.1/DTD/svg11.dtd">
<svg xmlns="http://www.w3.org/2000/svg" xmlns:xlink="http://www.w3.org/1999/xlink" version="1.1" width="1080" height="1080" viewBox="11.33 58.67 1080 1080" xml:space="preserve">
<desc>Created with Fabric.js 5.2.4</desc>
<defs>
</defs>
<g transform="matrix(1 0 0 1 540 540)" id="2421be98-a06a-4407-886e-e4b4a9fe4ac6"  >
<rect style="stroke: none; stroke-width: 1; stroke-dasharray: none; stroke-linecap: butt; stroke-dashoffset: 0; stroke-linejoin: miter; stroke-miterlimit: 4; fill: rgb(255,255,255); fill-rule: nonzero; opacity: 1; visibility: hidden;" vector-effect="non-scaling-stroke"  x="-540" y="-540" rx="0" ry="0" width="1080" height="1080" />
</g>
<g transform="matrix(1 0 0 1 540 540)" id="bd41a7fc-7a38-4cf7-8b90-cfd9f9254b22"  >
</g>
<g transform="matrix(1 0 0 1 979.77 507.66)"  >
<path style="stroke: rgb(0,0,0); stroke-width: 0; stroke-dasharray: none; stroke-linecap: butt; stroke-dashoffset: 0; stroke-linejoin: miter; stroke-miterlimit: 4; fill: rgb(0,153,255); fill-rule: nonzero; opacity: 1;" vector-effect="non-scaling-stroke"  transform=" translate(-720, -112)" d="M 0 224 L 60 218.7 C 120 213 240 203 360 186.7 C 480 171 600 149 720 122.7 C 840 96 960 64 1080 69.3 C 1200 75 1320 117 1380 138.7 L 1440 160 L 1440 0 L 1380 0 C 1320 0 1200 0 1080 0 C 960 0 840 0 720 0 C 600 0 480 0 360 0 C 240 0 120 0 60 0 L 0 0 Z" stroke-linecap="round" />
</g>
<g transform="matrix(1 0 0 1 505.45 446.49)" style="" id="af2408d9-f804-4637-b402-c19fbf0f6c56"  >
		<text xml:space="preserve" font-family="Alegreya" font-size="80" font-style="normal" font-weight="700" style="stroke: none; stroke-width: 1; stroke-dasharray: none; stroke-linecap: butt; stroke-dashoffset: 0; stroke-linejoin: miter; stroke-miterlimit: 4; fill: rgb(207,173,87); fill-rule: nonzero; opacity: 1; white-space: pre;" ><tspan x="-227.75" y="25.13" >Hi, Im James</tspan></text>
</g>
</svg>