<svg width="720" height="720" viewBox="0 0 720 720" xmlns="http://www.w3.org/2000/svg"><path d="M1424,31.99999999999991C1455.571562629855,112.53355868488181,1400.865990693384,209.44344120995828,1368.6431839087554,289.5472340761651C1336.4203771241268,369.65102694237197,1317.7119627564837,451.5534381267305,1230.6631592922292,512.6227571972411C1143.6143558279748,573.6920762677516,939.7777564307333,647.7078815807774,846.3503631232284,655.9631484992286C752.9229698157234,664.2184154176798,741.740526634404,567.5355604981802,670.0987994471993,562.154358707948C598.4570722599947,556.7731569177157,463.4055365249748,647.7424899929231,416.50000000000017,623.675937757835C369.5944634750255,599.6093855227468,441.6238520465712,499.8379551886592,388.66558029735137,417.75504529741943C335.70730854813155,335.6721354061797,102.84299439783666,217.4775989483564,98.7503695046812,131.17847841039662C94.65774461152574,44.87935787243687,345.58263772304707,-14.88409064570304,364.1098309384186,-100.03967793033902C382.63702415379015,-185.195265214975,201.0151672866469,-349.3063138253222,209.91352879691044,-379.7550452974193C218.81189030717397,-410.2037767695164,339.5783735837626,-238.47419441689428,417.4999999999997,-282.7320667629218C495.42162641623685,-326.98993910894933,588.9288754271518,-594.7883564531239,677.4432872943333,-645.3022793735845C765.9576991615149,-695.8162022940451,861.7164925367733,-612.7621913150758,948.5864712030893,-585.8156042856853C1035.4564498694053,-558.8690172562947,1160.2252698044729,-548.9830049060012,1198.663159292229,-483.62275719724136C1237.1010487799851,-418.2625094884815,1141.657668011664,-279.59124423266644,1179.213808129626,-193.65411803312622C1216.7699482475878,-107.71699183358601,1392.428437370145,-48.53355868488198,1424,31.99999999999991C1455.571562629855,112.53355868488181,1400.865990693384,209.44344120995828,1368.6431839087554,289.5472340761651" fill="#686cdf"/></svg>