<svg width="1920" height="1080" viewBox="0 0 1920 1080" xmlns="http://www.w3.org/2000/svg"><path d="M2582.9540450701766,1.9999999999998346C2566.0707322880935,67.02561336018051,2309.334752059508,209.01188441010174,2283.9529377631834,302.1156772763086C2258.571123466859,395.21947014251543,2470.4609212439177,500.3891505927548,2430.6631592922295,560.6227571972411C2390.865397340541,620.8563638017274,2137.019399768869,670.2363216929033,2045.1663660530544,663.5173169032263C1953.3133323372401,656.7983121135493,1953.4893513395193,545.6030392368149,1879.5449569973437,520.3087284591793C1805.600562655168,495.0144176815437,1663.9016885274862,545.8412748341001,1601.5000000000002,511.75145223741276C1539.0983114725143,477.6616296407254,1542.2638945558274,369.83830303495927,1505.1348258324276,315.7697928790551C1468.0057571090279,261.70128272315094,1382.9834598474945,260.85875533216154,1378.7255876596023,187.3403913019878C1374.46771547171,113.82202727181406,1447.5103906802412,-31.375670242181357,1479.5875927050745,-125.34039130198738C1511.6647947299077,-219.30511236179342,1548.370065259448,-326.1236878286894,1571.1887998086022,-376.44793505684834C1594.0075343577564,-426.77218228500726,1567.6242520857113,-385.0477966355876,1616.4999999999998,-427.2858746709411C1665.3757479142882,-469.5239527062946,1776.0955420938185,-612.2622210436856,1864.4432872943335,-629.8764032689694C1952.7910324948484,-647.4905854942532,2060.414464596045,-559.0132423679318,2146.5864712030893,-532.9709680226438C2232.7584778101336,-506.9286936773558,2341.6976030611663,-547.778251386886,2381.4753269365983,-473.62275719724136C2421.2530508120303,-399.46726300759667,2351.6730281000846,-167.30846241764903,2385.252814455681,-88.0380028847755C2418.832600811277,-8.767543351901963,2599.8373578522596,-63.02561336018085,2582.9540450701766,1.9999999999998346C2566.0707322880935,67.02561336018051,2309.334752059508,209.01188441010174,2283.9529377631834,302.1156772763086" fill="#686cdf"/></svg>