<?xml version="1.0" encoding="UTF-8" standalone="no" ?>
<!DOCTYPE svg PUBLIC "-//W3C//DTD SVG 1.1//EN" "http://www.w3.org/Graphics/SVG/1.1/DTD/svg11.dtd">
<svg xmlns="http://www.w3.org/2000/svg" xmlns:xlink="http://www.w3.org/1999/xlink" version="1.1" width="360" height="360" viewBox="-161.43 -181.43 360 360" xml:space="preserve">
<desc>Created with Fabric.js 5.2.4</desc>
<defs>
</defs>
<rect x="0" y="0" width="100%" height="100%" fill="transparent"></rect>
<g transform="matrix(Infinity NaN NaN Infinity 0 0)" id="b96241df-8f69-4138-88d4-cb3ac9298482"  >
</g>
<g transform="matrix(1 0 0 1 180 180)" id="60cc7815-6660-4ac9-8a94-a8c182d2be5f"  >
<rect style="stroke: none; stroke-width: 1; stroke-dasharray: none; stroke-linecap: butt; stroke-dashoffset: 0; stroke-linejoin: miter; stroke-miterlimit: 4; fill: rgb(255,255,255); fill-rule: nonzero; opacity: 1; visibility: hidden;" vector-effect="non-scaling-stroke"  x="-180" y="-180" rx="0" ry="0" width="360" height="360" />
</g>
<g transform="matrix(0.33 0 0 0.33 -16.38 386.52)"  >
<path style="stroke: rgb(0,0,0); stroke-width: 0; stroke-dasharray: none; stroke-linecap: butt; stroke-dashoffset: 0; stroke-linejoin: miter; stroke-miterlimit: 4; fill: rgb(101,101,101); fill-rule: nonzero; opacity: 1;" vector-effect="non-scaling-stroke"  transform=" translate(-50, -50)" d="M 87.103 50.023 C 87.103 60.261 83.5 69.057 76.24199999999999 76.31400000000001 C 68.985 83.571 60.236 87.176 50 87.176 C 39.760999999999996 87.176 31.015 83.572 23.759 76.31400000000001 C 16.5 69.057 12.897 60.261 12.897 50.023 C 12.897 39.739000000000004 16.5 30.992000000000004 23.759 23.734 C 31.014 16.477000000000004 39.760000000000005 12.824000000000002 50 12.824000000000002 C 60.236000000000004 12.824000000000002 68.985 16.477 76.241 23.734 C 83.5 30.992 87.103 39.739 87.103 50.023 z M 44.903 41.228 L 35.677 25.177000000000003 C 31.352 27.676000000000002 27.938 31.088 25.342 35.413000000000004 C 22.796 39.74 21.546999999999997 44.496 21.546999999999997 49.735 L 39.955999999999996 49.735 C 39.956 45.842 41.588 43.006 44.903 41.228 z M 63.984 74.68 L 54.854 58.57900000000001 C 53.987 59.10600000000001 53.172 59.492000000000004 52.304 59.684000000000005 C 51.49 59.876000000000005 50.625 59.972 49.615 59.972 C 47.883 59.972 46.346000000000004 59.54 44.903000000000006 58.578 L 35.485 74.68 C 39.906 77.13000000000001 44.665 78.38000000000001 49.854 78.38000000000001 C 54.951 78.38 59.66 77.178 63.984 74.68 z M 55.335 50.071 C 55.335 48.534 54.855000000000004 47.236 53.795 46.178 C 52.738 45.122 51.441 44.592 49.904 44.592 C 48.46 44.592 47.166000000000004 45.122 46.059000000000005 46.178 C 44.903000000000006 47.236 44.377 48.534 44.377 50.071 C 44.377 51.608999999999995 44.903000000000006 52.955999999999996 45.914 54.013 C 46.97 55.07 48.318 55.598 49.904 55.598 C 51.395 55.598 52.643 55.022 53.749 53.917 C 54.805 52.859 55.335 51.562 55.335 50.071 z M 78.453 49.735 C 78.453 44.688 77.20100000000001 40.027 74.654 35.652 C 72.158 31.327 68.64699999999999 27.819000000000003 64.08099999999999 25.176000000000002 L 54.950999999999986 41.132000000000005 C 58.16999999999999 43.2 59.755999999999986 46.034000000000006 59.755999999999986 49.73500000000001 L 78.453 49.73500000000001 z" stroke-linecap="round" />
</g>
<g transform="matrix(0.17 0 0 0.17 28.43 -4.6)" id="1475bce5-04d9-470f-90ca-07db71e49540"  >
<path style="stroke: rgb(0,0,0); stroke-width: 0; stroke-dasharray: none; stroke-linecap: butt; stroke-dashoffset: 0; stroke-linejoin: miter; stroke-miterlimit: 4; fill: rgb(104,108,223); fill-rule: nonzero; opacity: 1;" vector-effect="non-scaling-stroke"  transform=" translate(-1981.3, -15.98)" d="M 2582.9540450701766 1.9999999999998346 C 2566.0707322880935 67.02561336018051 2309.334752059508 209.01188441010174 2283.9529377631834 302.1156772763086 C 2258.571123466859 395.21947014251543 2470.4609212439177 500.3891505927548 2430.6631592922295 560.6227571972411 C 2390.865397340541 620.8563638017274 2137.019399768869 670.2363216929033 2045.1663660530544 663.5173169032263 C 1953.3133323372401 656.7983121135493 1953.4893513395193 545.6030392368149 1879.5449569973437 520.3087284591793 C 1805.600562655168 495.0144176815437 1663.9016885274862 545.8412748341001 1601.5000000000002 511.75145223741276 C 1539.0983114725143 477.6616296407254 1542.2638945558274 369.83830303495927 1505.1348258324276 315.7697928790551 C 1468.0057571090279 261.70128272315094 1382.9834598474945 260.85875533216154 1378.7255876596023 187.3403913019878 C 1374.46771547171 113.82202727181406 1447.5103906802412 -31.375670242181357 1479.5875927050745 -125.34039130198738 C 1511.6647947299077 -219.30511236179342 1548.370065259448 -326.1236878286894 1571.1887998086022 -376.44793505684834 C 1594.0075343577564 -426.77218228500726 1567.6242520857113 -385.0477966355876 1616.4999999999998 -427.2858746709411 C 1665.3757479142882 -469.5239527062946 1776.0955420938185 -612.2622210436856 1864.4432872943335 -629.8764032689694 C 1952.7910324948484 -647.4905854942532 2060.414464596045 -559.0132423679318 2146.5864712030893 -532.9709680226438 C 2232.7584778101336 -506.9286936773558 2341.6976030611663 -547.778251386886 2381.4753269365983 -473.62275719724136 C 2421.2530508120303 -399.46726300759667 2351.6730281000846 -167.30846241764903 2385.252814455681 -88.0380028847755 C 2418.832600811277 -8.767543351901963 2599.8373578522596 -63.02561336018085 2582.9540450701766 1.9999999999998346 C 2566.0707322880935 67.02561336018051 2309.334752059508 209.01188441010174 2283.9529377631834 302.1156772763086" stroke-linecap="round" />
</g>
</svg>