<svg width="1920" height="1080" viewBox="0 0 1920 1080" xmlns="http://www.w3.org/2000/svg"><path d="M2602,0.9999999999998347C2600.8333333333335,92.8490780253883,2609.124218259668,238.97185853075882,2550.6431839087554,299.5472340761651C2492.162149557843,360.1226096215714,2314.568899378536,300.1658706055494,2251.113793894526,364.4522532724376C2187.6586884105163,428.7386359393258,2232.176538326009,631.2905257273031,2169.9125510046974,685.2655300774943C2107.648563683386,739.2405344276855,1966.0986284674389,738.1680722540626,1877.529869966656,688.3022793735845C1788.961111465873,638.4364864931064,1720.4360568616244,433.603712260298,1638.5000000000002,386.07077279462584C1556.563943138376,338.5378333289537,1445.7051338794638,435.39303949499134,1385.9135287969107,403.1046425795517C1326.1219237143575,370.81624566411205,1292.110896053386,272.9868706503502,1279.7503695046812,192.3403913019878C1267.3898429559763,111.6939119536254,1271.6142972200844,15.741672589278437,1311.7503695046812,-80.77423351062275C1351.886441789278,-177.29013961052394,1466.1085314630427,-347.7199031985345,1520.5668032122624,-386.7550452974193C1575.025074961482,-425.79018739630413,1571.566807976113,-303.43174978212875,1638.4999999999998,-314.98508610393156C1705.4331920238865,-326.5384224257344,1836.1686096304445,-407.2453861623535,1922.1659553555826,-456.07506322823633C2008.1633010807207,-504.90474029411916,2074.234540361387,-605.2051995043946,2154.4840743508285,-607.9631484992287C2234.7336083402697,-610.7210974940629,2336.469974365908,-532.0254096010852,2403.663159292229,-472.62275719724136C2470.85634421855,-413.2201047933975,2524.5870437907934,-330.48436027570585,2557.6431839087554,-251.54723407616564C2590.6993240267175,-172.61010787662542,2603.1666666666665,-90.84907802538864,2602,0.9999999999998347C2600.8333333333335,92.8490780253883,2609.124218259668,238.97185853075882,2550.6431839087554,299.5472340761651" fill="#686cdf"/></svg>